<!DOCTYPE svg PUBLIC "-//W3C//DTD SVG 1.1//EN" "http://www.w3.org/Graphics/SVG/1.1/DTD/svg11.dtd">
<!-- Uploaded to: SVG Repo, www.svgrepo.com, Transformed by: SVG Repo Mixer Tools -->
<svg fill="#ffffff" width="800px" height="800px" viewBox="0 0 32 32" version="1.1" xmlns="http://www.w3.org/2000/svg" stroke="#ffffff">
<g id="SVGRepo_bgCarrier" stroke-width="0"/>
<g id="SVGRepo_tracerCarrier" stroke-linecap="round" stroke-linejoin="round"/>
<g id="SVGRepo_iconCarrier"> <title>selenium</title> <path d="M20.606 19.981c-0.020-0.001-0.043-0.001-0.066-0.001-1.126 0-2.055 0.848-2.182 1.94l-0.001 0.010c-0 0.002-0 0.005-0 0.008 0 0.041 0.034 0.075 0.075 0.075 0 0 0 0 0 0h4.364c0 0 0 0 0 0 0.041 0 0.075-0.034 0.075-0.075 0-0.003-0-0.005-0-0.008l0 0c-0.089-1.098-1.002-1.955-2.115-1.955-0.052 0-0.104 0.002-0.156 0.006l0.007-0zM25.21 23.415c0 0.133-0.107 0.24-0.24 0.24v0h-6.501c-0 0-0 0-0 0-0.041 0-0.075 0.034-0.075 0.075 0 0.003 0 0.005 0 0.008l-0-0c0.211 1.174 1.225 2.054 2.445 2.054 0.066 0 0.131-0.003 0.196-0.008l-0.009 0.001c0.846-0.023 1.623-0.301 2.262-0.758l-0.012 0.008c0.040-0.032 0.092-0.051 0.148-0.051 0.081 0 0.153 0.041 0.197 0.102l0 0.001 0.795 1.162c0.026 0.038 0.041 0.086 0.041 0.136 0 0.078-0.036 0.148-0.093 0.193l-0 0c-0.958 0.704-2.161 1.127-3.463 1.127-0.053 0-0.106-0.001-0.159-0.002l0.008 0c-0.077 0.005-0.168 0.007-0.259 0.007-2.572 0-4.656-2.085-4.656-4.656 0-0.066 0.001-0.131 0.004-0.196l-0 0.009c-0.001-0.041-0.002-0.088-0.002-0.136 0-2.584 2.095-4.679 4.679-4.679 0.030 0 0.059 0 0.089 0.001l-0.004-0c0.006-0 0.014-0 0.021-0 2.543 0 4.605 2.062 4.605 4.605 0 0.161-0.008 0.319-0.024 0.476l0.002-0.020zM9.667 27.704c-0.095 0.005-0.206 0.007-0.318 0.007-1.825 0-3.489-0.685-4.75-1.813l0.007 0.006c-0.041-0.048-0.066-0.111-0.066-0.18s0.025-0.132 0.067-0.18l-0 0 1.102-1.545c0.051-0.071 0.133-0.117 0.226-0.117 0.072 0 0.137 0.027 0.186 0.072l-0-0c0.964 0.897 2.262 1.447 3.687 1.447 0.006 0 0.012 0 0.018-0h-0.001c1.447 0 2.152-0.667 2.152-1.372 0-2.189-7.123-0.69-7.123-5.346 0-2.062 1.784-3.749 4.694-3.749 0.074-0.003 0.161-0.004 0.248-0.004 1.668 0 3.2 0.587 4.398 1.566l-0.012-0.010c0.045 0.049 0.073 0.115 0.073 0.187s-0.028 0.138-0.073 0.188l0-0-1.132 1.5c-0.051 0.066-0.131 0.109-0.22 0.109-0.068 0-0.129-0.024-0.178-0.064l0 0c-0.908-0.729-2.074-1.17-3.343-1.17-0.014 0-0.027 0-0.041 0h0.002c-1.132 0-1.762 0.502-1.762 1.245 0 1.964 7.108 0.652 7.108 5.248 0.007 2.264-1.605 3.974-4.949 3.974zM29.963 5.338l-9.267 10.4c-0.052 0.054-0.125 0.088-0.206 0.088s-0.154-0.034-0.206-0.088l-0-0-4.731-4.874c-0.038-0.048-0.061-0.109-0.061-0.176s0.023-0.128 0.061-0.177l1.537-2.009c0.052-0.070 0.135-0.115 0.229-0.115s0.176 0.045 0.228 0.114l0.001 0.001 2.632 2.932c0.052 0.059 0.129 0.096 0.214 0.096s0.161-0.037 0.213-0.096l0-0 7.423-10.115c0.021-0.032 0.034-0.071 0.034-0.113 0-0.108-0.085-0.196-0.191-0.202l-0.001-0h-25.973c-0.12 0-0.217 0.097-0.217 0.217v0 29.556c0 0 0 0 0 0 0 0.12 0.097 0.217 0.217 0.217 0 0 0 0 0 0h28.199c0 0 0 0 0 0 0.12 0 0.217-0.097 0.217-0.217 0 0 0 0 0-0v0-25.275c0.002-0.010 0.003-0.021 0.003-0.032 0-0.112-0.091-0.202-0.202-0.202-0.061 0-0.115 0.027-0.152 0.069l-0 0z"/> </g>
</svg>